<?xml version="1.0" encoding="UTF-8"?> <svg xmlns="http://www.w3.org/2000/svg" id="Layer_1" data-name="Layer 1" viewBox="0 0 1272.22 359.78"><defs><style>.cls-1{fill:#fff;}</style></defs><title>interpret brasil | layout - coÌpia</title><path class="cls-1" d="M103.53,110.07V90.75h23v19.32Zm23,13.21v85.38h-23V123.28Z"></path><path class="cls-1" d="M164.91,123.28v11.89h.49a26.69,26.69,0,0,1,11.36-10.82A32.5,32.5,0,0,1,191.05,121q9.24,0,15.17,2.56a22.62,22.62,0,0,1,9.34,7.1,27.78,27.78,0,0,1,4.78,11.07,69.93,69.93,0,0,1,1.38,14.45v52.51h-23V160.44q0-10.58-3.25-15.77t-11.52-5.2q-9.42,0-13.64,5.69t-4.22,18.75v44.75H143V123.28Z"></path><path class="cls-1" d="M283.13,123.28V139H266.25v42.28c0,4,.64,6.6,1.94,7.92s3.9,2,7.79,2c1.3,0,2.55-.06,3.74-.17a32.15,32.15,0,0,0,3.41-.49v18.16a54.17,54.17,0,0,1-6.5.66c-2.38.11-4.7.17-7,.17a66.78,66.78,0,0,1-10.14-.74,23.56,23.56,0,0,1-8.44-2.9,15,15,0,0,1-5.76-6.11q-2.12-4-2.11-10.4V139h-14V123.28h14V97.68h23.05v25.6Z"></path><path class="cls-1" d="M316.34,188.18q5.19,5.13,14.93,5.12a20.29,20.29,0,0,0,12-3.55q5-3.54,6.17-7.51h20.29q-4.87,15.36-14.94,22t-24.34,6.61a47.16,47.16,0,0,1-17.86-3.22,37.08,37.08,0,0,1-13.47-9.17,41.25,41.25,0,0,1-8.52-14.2,52.6,52.6,0,0,1-3-18.17,50.49,50.49,0,0,1,3.08-17.83,42.06,42.06,0,0,1,8.76-14.29A41.36,41.36,0,0,1,313,124.44,42.84,42.84,0,0,1,330.46,121a39.28,39.28,0,0,1,18.66,4.21,37.54,37.54,0,0,1,13.07,11.31,47,47,0,0,1,7.39,16.19,61.49,61.49,0,0,1,1.62,19H310.65Q311.15,183.07,316.34,188.18Zm26.05-44.92q-4.14-4.62-12.58-4.62a19.69,19.69,0,0,0-9.17,1.9,17.56,17.56,0,0,0-5.85,4.71,17.24,17.24,0,0,0-3.08,5.94,27.09,27.09,0,0,0-1.06,5.62h37.5Q346.53,147.89,342.39,143.26Z"></path><path class="cls-1" d="M405.19,123.28v15.86h.32A29.3,29.3,0,0,1,416.22,126a30.65,30.65,0,0,1,7.63-3.72,27.14,27.14,0,0,1,8.44-1.32,17.69,17.69,0,0,1,5,.83v21.79c-1.08-.21-2.38-.41-3.89-.57a39.4,39.4,0,0,0-4.38-.25,24.24,24.24,0,0,0-10.72,2.15,18.63,18.63,0,0,0-7.06,5.86,23.71,23.71,0,0,0-3.81,8.67,47.79,47.79,0,0,0-1.14,10.73v38.48H383.27V123.28Z"></path><path class="cls-1" d="M467.35,123.28v10.9h.33a25.49,25.49,0,0,1,10.71-10.07A32.42,32.42,0,0,1,492.67,121a35.91,35.91,0,0,1,17.05,3.8,35.38,35.38,0,0,1,11.85,10.07,43,43,0,0,1,7,14.62,65.79,65.79,0,0,1,2.28,17.42,59.37,59.37,0,0,1-2.28,16.51,42.23,42.23,0,0,1-6.89,14A33.23,33.23,0,0,1,494,210.81a32.15,32.15,0,0,1-14.36-3.22,27.26,27.26,0,0,1-10.8-9.5h-.32v40.46H445.44V123.28ZM497.3,191a18.63,18.63,0,0,0,6.17-6,25,25,0,0,0,3.32-8.67,52,52,0,0,0,1-10.07,47.76,47.76,0,0,0-1.06-10.07,26.85,26.85,0,0,0-3.49-8.84A19.53,19.53,0,0,0,497,141a17.25,17.25,0,0,0-9.33-2.39,17.56,17.56,0,0,0-9.49,2.39,19,19,0,0,0-6.17,6.2,26,26,0,0,0-3.33,8.75,52.92,52.92,0,0,0-1,10.24,48.42,48.42,0,0,0,1.05,10.07,26.07,26.07,0,0,0,3.41,8.67,18.33,18.33,0,0,0,6.25,6,20.5,20.5,0,0,0,18.91,0Z"></path><path class="cls-1" d="M565.26,123.28v15.86h.32A29.41,29.41,0,0,1,576.3,126a30.48,30.48,0,0,1,7.63-3.72,27,27,0,0,1,8.44-1.32,17.74,17.74,0,0,1,5,.83v21.79c-1.09-.21-2.38-.41-3.9-.57a39.26,39.26,0,0,0-4.38-.25,24.19,24.19,0,0,0-10.71,2.15,18.48,18.48,0,0,0-7.06,5.86,23.72,23.72,0,0,0-3.82,8.67,47.81,47.81,0,0,0-1.13,10.73v38.48h-23V123.28Z"></path><path class="cls-1" d="M630.27,188.18q5.19,5.13,14.93,5.12a20.29,20.29,0,0,0,12-3.55q5-3.54,6.17-7.51h20.29q-4.87,15.36-14.94,22t-24.34,6.61a47.16,47.16,0,0,1-17.86-3.22,37.08,37.08,0,0,1-13.47-9.17,41.25,41.25,0,0,1-8.52-14.2,52.6,52.6,0,0,1-3-18.17,50.49,50.49,0,0,1,3.08-17.83,41.93,41.93,0,0,1,8.77-14.29,41.22,41.22,0,0,1,13.55-9.49A42.84,42.84,0,0,1,644.39,121a39.28,39.28,0,0,1,18.66,4.21,37.54,37.54,0,0,1,13.07,11.31,47,47,0,0,1,7.39,16.19,61.49,61.49,0,0,1,1.62,19H624.58Q625.07,183.07,630.27,188.18Zm26.05-44.92q-4.14-4.62-12.58-4.62a19.69,19.69,0,0,0-9.17,1.9,17.56,17.56,0,0,0-5.85,4.71,17.24,17.24,0,0,0-3.08,5.94,27.09,27.09,0,0,0-1.06,5.62h37.5Q660.46,147.89,656.32,143.26Z"></path><path class="cls-1" d="M742.2,123.28V139H725.32v42.28q0,5.94,1.94,7.92t7.8,2c1.29,0,2.54-.06,3.73-.17a32.15,32.15,0,0,0,3.41-.49v18.16a54.17,54.17,0,0,1-6.5.66c-2.38.11-4.7.17-7,.17a66.78,66.78,0,0,1-10.14-.74,23.56,23.56,0,0,1-8.44-2.9,15,15,0,0,1-5.76-6.11q-2.11-4-2.11-10.4V139h-14V123.28h14V97.68h23.05v25.6Z"></path><path class="cls-1" d="M826.39,90.75v44.09h.32a20.88,20.88,0,0,1,10.72-10.32,39.33,39.33,0,0,1,16.07-3.22,37.34,37.34,0,0,1,17,3.63,34.72,34.72,0,0,1,12,9.83A43.69,43.69,0,0,1,889.69,149a59.16,59.16,0,0,1,2.44,17.18,61.09,61.09,0,0,1-2.36,17.17,40.62,40.62,0,0,1-7.14,14.12,33.64,33.64,0,0,1-12,9.5,38.46,38.46,0,0,1-16.8,3.47,40.77,40.77,0,0,1-6.9-.66,38,38,0,0,1-7.55-2.15,29.53,29.53,0,0,1-7.06-4,22.78,22.78,0,0,1-5.6-6.36h-.32v11.39h-13.8V90.75ZM876,153.59a31.69,31.69,0,0,0-4.71-10.16,23.21,23.21,0,0,0-8.12-7.1,24.31,24.31,0,0,0-11.6-2.64,23.38,23.38,0,0,0-11.85,2.8,24,24,0,0,0-8,7.35,31,31,0,0,0-4.47,10.32,50.88,50.88,0,0,0,.08,23.87A30.37,30.37,0,0,0,832,188.35a23.66,23.66,0,0,0,8.2,7.18,25.18,25.18,0,0,0,12.17,2.73,23.28,23.28,0,0,0,11.93-2.81A22.39,22.39,0,0,0,872,188a32.71,32.71,0,0,0,4.22-10.57,56.83,56.83,0,0,0,1.3-12.22A44.6,44.6,0,0,0,876,153.59Z"></path><path class="cls-1" d="M918.26,123.28v18h.32q5-10.4,12.34-15.36t18.5-4.62v14.86a38.45,38.45,0,0,0-14.12,2.31,22.32,22.32,0,0,0-9.41,6.78,28.21,28.21,0,0,0-5.2,10.81,59.47,59.47,0,0,0-1.62,14.62v38h-13.8V123.28Z"></path><path class="cls-1" d="M1031.62,208.33q-3.57,2.14-9.9,2.15a11.74,11.74,0,0,1-8.52-3.06q-3.16-3-3.17-10a33,33,0,0,1-13.23,10,44.9,44.9,0,0,1-27.1,1.74,24.94,24.94,0,0,1-8.85-4.13,19.81,19.81,0,0,1-5.93-7.35,25.11,25.11,0,0,1-2.19-11q0-7.27,2.44-11.89a21.56,21.56,0,0,1,6.41-7.52,29.25,29.25,0,0,1,9.09-4.37q5.12-1.48,10.47-2.48,5.68-1.16,10.79-1.73a59.24,59.24,0,0,0,9-1.66,14.94,14.94,0,0,0,6.17-3.13,7.76,7.76,0,0,0,2.27-6,14.26,14.26,0,0,0-1.7-7.43,11.87,11.87,0,0,0-4.38-4.3,17.66,17.66,0,0,0-6-2,44.63,44.63,0,0,0-6.57-.49q-8.78,0-14.61,3.38t-6.33,12.8H956a30.82,30.82,0,0,1,3.25-13.38,24.82,24.82,0,0,1,7.79-8.83,32.25,32.25,0,0,1,11.12-4.87,57.7,57.7,0,0,1,13.39-1.49,77.43,77.43,0,0,1,11.28.83A29,29,0,0,1,1013,125.5a19.71,19.71,0,0,1,7.31,7.17q2.76,4.62,2.76,12v43.84a33.34,33.34,0,0,0,.56,7.25q.57,2.29,3.82,2.3a16.46,16.46,0,0,0,4.22-.66Zm-22.4-43.76a17.2,17.2,0,0,1-6.82,2.88q-4.21.9-8.84,1.47t-9.34,1.32a34.09,34.09,0,0,0-8.44,2.38,15.38,15.38,0,0,0-6.08,4.68q-2.36,3-2.36,8.3a11.07,11.07,0,0,0,4.95,9.7,14.85,14.85,0,0,0,5.12,2.14,27.84,27.84,0,0,0,6.16.65,32.33,32.33,0,0,0,11.69-1.89,24.35,24.35,0,0,0,8-4.76,18.84,18.84,0,0,0,4.55-6.25,16,16,0,0,0,1.46-6.32Z"></path><path class="cls-1" d="M1052.64,189.59a14.82,14.82,0,0,0,5.11,5.12,22.89,22.89,0,0,0,7.14,2.72,40.23,40.23,0,0,0,8.2.83,49.93,49.93,0,0,0,6.82-.5,24.73,24.73,0,0,0,6.57-1.81,12.44,12.44,0,0,0,5-3.88,10.49,10.49,0,0,0,2-6.53,9.43,9.43,0,0,0-4.06-8.26,34.5,34.5,0,0,0-10.14-4.54q-6.09-1.73-13.23-3.13a67.68,67.68,0,0,1-13.23-4,27.38,27.38,0,0,1-10.15-7.18q-4-4.62-4-12.88a20.67,20.67,0,0,1,2.84-11.07,23.29,23.29,0,0,1,7.3-7.51,33.32,33.32,0,0,1,10.06-4.3,45.92,45.92,0,0,1,11.12-1.4,64.92,64.92,0,0,1,13.15,1.24,30.12,30.12,0,0,1,10.63,4.29,22.07,22.07,0,0,1,7.39,8.26,31.72,31.72,0,0,1,3.24,13h-13.79a14.43,14.43,0,0,0-2.11-6.85,14,14,0,0,0-4.55-4.38,20.32,20.32,0,0,0-6.09-2.39,30.44,30.44,0,0,0-6.73-.74,40.36,40.36,0,0,0-6.25.49,20.6,20.6,0,0,0-5.76,1.74,11.44,11.44,0,0,0-4.22,3.3,8.38,8.38,0,0,0-1.63,5.37,7.94,7.94,0,0,0,2.52,6,20,20,0,0,0,6.41,4,56.61,56.61,0,0,0,8.77,2.64q4.86,1.08,9.74,2.23a102.37,102.37,0,0,1,10.14,2.81,33.15,33.15,0,0,1,8.77,4.37,21.35,21.35,0,0,1,6.16,6.86,20.38,20.38,0,0,1,2.36,10.24q0,7.76-3.17,12.88a24.93,24.93,0,0,1-8.28,8.25,34,34,0,0,1-11.52,4.38,66.73,66.73,0,0,1-12.74,1.24A58.07,58.07,0,0,1,1059,209a32.24,32.24,0,0,1-11.2-4.87,24.53,24.53,0,0,1-7.79-8.92,31.16,31.16,0,0,1-3.25-13.46h13.8A15.92,15.92,0,0,0,1052.64,189.59Z"></path><path class="cls-1" d="M1121.18,107.92V90.75H1135v17.17Zm13.8,15.36v85.38h-13.8V123.28Z"></path><path class="cls-1" d="M1167.1,90.75V208.66h-13.8V90.75Z"></path><polygon class="cls-1" points="82.05 350.63 82.05 280.32 29.21 280.32 29.62 28.11 896.9 28.11 896.9 46.25 47.75 46.25 47.35 262.18 100.18 262.18 100.18 315.9 177.28 262.18 304.18 262.18 304.18 280.32 182.97 280.32 82.05 350.63"></polygon><polygon class="cls-1" points="893.08 37.18 893.08 9.14 922.47 23.16 951.86 37.18 922.47 51.2 893.08 65.21 893.08 37.18"></polygon><polygon class="cls-1" points="1189.8 350.61 1088.87 280.3 427.91 280.3 427.91 262.16 1094.57 262.16 1171.66 315.88 1171.66 262.16 1224.5 262.16 1224.9 46.16 1027.84 46.16 1027.84 28.02 1243.04 28.02 1242.63 280.3 1189.8 280.3 1189.8 350.61"></polygon><polygon class="cls-1" points="439.85 271.03 439.85 243 410.46 257.01 381.07 271.03 410.46 285.05 439.85 299.06 439.85 271.03"></polygon></svg> 